<svg width="59" height="15" viewBox="0 0 59 15" fill="none" xmlns="http://www.w3.org/2000/svg">
<path d="M6.408 14.7881C2.736 14.7881 0 11.8162 0 8.05925V8.02187C0 4.30231 2.682 1.25563 6.498 1.25563C8.82 1.25563 10.224 2.09674 11.43 3.29298L10.008 4.99388C9 4.02194 7.92 3.36774 6.48 3.36774C4.068 3.36774 2.322 5.42378 2.322 7.98449V8.02187C2.322 10.5826 4.068 12.676 6.48 12.676C8.028 12.676 9.018 12.0218 10.098 10.9751L11.52 12.4704C10.206 13.8909 8.766 14.7881 6.408 14.7881Z" fill="white"/>
<path d="M13.7211 14.5638V0.919189H15.8991V14.5638H13.7211Z" fill="white"/>
<path d="M22.0215 14.7694C19.8795 14.7694 18.6375 13.2741 18.6375 10.9751V4.69482H20.8155V10.3022C20.8155 11.8349 21.5535 12.7134 22.8495 12.7134C24.1095 12.7134 24.9915 11.7975 24.9915 10.2648V4.69482H27.1695V14.5638H24.9915V13.0311C24.3795 13.9657 23.4975 14.7694 22.0215 14.7694Z" fill="white"/>
<path d="M35.3076 14.7694C33.7416 14.7694 32.7516 13.947 32.0856 13.0311V14.5638H29.9076V0.919189H32.0856V6.33965C32.7876 5.31164 33.7776 4.48922 35.3076 4.48922C37.5576 4.48922 39.7356 6.33965 39.7356 9.61062V9.64801C39.7356 12.919 37.5756 14.7694 35.3076 14.7694ZM34.8036 12.8068C36.2976 12.8068 37.5216 11.5919 37.5216 9.64801V9.61062C37.5216 7.70412 36.2796 6.4518 34.8036 6.4518C33.3276 6.4518 32.0316 7.72281 32.0316 9.61062V9.64801C32.0316 11.5545 33.3276 12.8068 34.8036 12.8068Z" fill="white"/>
<path d="M48.438 14.5638L51.3226 9.40502L46.3186 1.47993H48.9286L52.4566 7.27422L56.0206 1.47993H58.5586L53.5546 9.34895L50.938 14.5638H48.438Z" fill="#D5AFFF"/>
</svg>
