<svg width="30" height="31" viewBox="0 0 30 31" fill="none" xmlns="http://www.w3.org/2000/svg">
<g clip-path="url(#clip0_2019_36)">
<path d="M27.7793 0.799438H2.21484C0.990234 0.799438 0 1.76624 0 2.96155V28.6315C0 29.8268 0.990234 30.7994 2.21484 30.7994H27.7793C29.0039 30.7994 30 29.8268 30 28.6373V2.96155C30 1.76624 29.0039 0.799438 27.7793 0.799438ZM8.90039 26.3639H4.44727V12.0436H8.90039V26.3639ZM6.67383 10.0924C5.24414 10.0924 4.08984 8.93811 4.08984 7.51428C4.08984 6.09045 5.24414 4.93616 6.67383 4.93616C8.09766 4.93616 9.25195 6.09045 9.25195 7.51428C9.25195 8.93225 8.09766 10.0924 6.67383 10.0924ZM25.5645 26.3639H21.1172V19.403C21.1172 17.7448 21.0879 15.6061 18.8027 15.6061C16.4883 15.6061 16.1367 17.4166 16.1367 19.2858V26.3639H11.6953V12.0436H15.9609V14.0006H16.0195C16.6113 12.8756 18.0645 11.6862 20.2266 11.6862C24.7324 11.6862 25.5645 14.651 25.5645 18.5065V26.3639V26.3639Z" fill="black"/>
</g>
<defs>
<clipPath id="clip0_2019_36">
<rect width="30" height="30" fill="white" transform="translate(0 0.799438)"/>
</clipPath>
</defs>
</svg>
