<svg width="332" height="41" viewBox="0 0 332 41" fill="none" xmlns="http://www.w3.org/2000/svg">
<path d="M11.1855 33.6939L0 1.37526H6.097L13.7526 25.1673L21.6375 1.28358H26.4051L34.2899 25.1673L41.9455 1.37526H47.8592L36.6737 33.6939H31.8144L23.9296 10.6354L16.0447 33.6939H11.1855Z" fill="#333333"/>
<path d="M61.5101 34.0148C54.1295 34.0148 48.6743 28.3763 48.6743 21.4999V21.4083C48.6743 14.4861 54.1753 8.75584 61.6018 8.75584C69.0282 8.75584 74.4834 14.3944 74.4834 21.3166V21.4083C74.4834 28.2846 68.9823 34.0148 61.5101 34.0148ZM61.6018 29.2014C66.0943 29.2014 68.9365 25.6716 68.9365 21.4999V21.4083C68.9365 17.1449 65.8651 13.6151 61.5101 13.6151C57.0634 13.6151 54.2212 17.0991 54.2212 21.3166V21.4083C54.2212 25.6257 57.2926 29.2014 61.6018 29.2014Z" fill="#333333"/>
<path d="M80.1324 33.4647V9.26011H85.6793V14.7153C87.1921 11.0938 89.9884 8.61831 94.2517 8.80168V14.6695H93.9308C89.0716 14.6695 85.6793 17.8326 85.6793 24.2505V33.4647H80.1324Z" fill="#333333"/>
<path d="M99.0691 33.4647V0H104.616V19.9872L114.655 9.26011H121.394L111.767 19.1162L121.715 33.4647H115.297L108.008 23.0127L104.616 26.5426V33.4647H99.0691Z" fill="#333333"/>
<path d="M134.048 33.9232C130.61 33.9232 126.805 32.6854 123.779 30.3016L126.255 26.5426C128.868 28.5138 131.71 29.5223 134.186 29.5223C136.569 29.5223 137.945 28.5138 137.945 26.9093V26.8176C137.945 24.9381 135.377 24.2963 132.535 23.4253C128.96 22.4168 124.971 20.9498 124.971 16.3198V16.2281C124.971 11.6439 128.776 8.84753 133.59 8.84753C136.615 8.84753 139.916 9.9019 142.483 11.5981L140.283 15.5405C137.945 14.1194 135.469 13.2484 133.452 13.2484C131.298 13.2484 130.06 14.2569 130.06 15.678V15.7697C130.06 17.5117 132.673 18.2452 135.515 19.162C139.045 20.2622 143.033 21.8667 143.033 26.2217V26.3134C143.033 31.4018 139.091 33.9232 134.048 33.9232Z" fill="#333333"/>
<path d="M148.672 33.4647V0H154.219V13.0192C155.777 10.7271 158.023 8.75584 161.783 8.75584C167.238 8.75584 170.401 12.4232 170.401 18.0618V33.4647H164.854V19.7121C164.854 15.9531 162.974 13.7985 159.674 13.7985C156.465 13.7985 154.219 16.0447 154.219 19.8038V33.4647H148.672Z" fill="#333333"/>
<path d="M188.606 34.0148C181.225 34.0148 175.77 28.3763 175.77 21.4999V21.4083C175.77 14.4861 181.271 8.75584 188.697 8.75584C196.124 8.75584 201.579 14.3944 201.579 21.3166V21.4083C201.579 28.2846 196.078 34.0148 188.606 34.0148ZM188.697 29.2014C193.19 29.2014 196.032 25.6716 196.032 21.4999V21.4083C196.032 17.1449 192.961 13.6151 188.606 13.6151C184.159 13.6151 181.317 17.0991 181.317 21.3166V21.4083C181.317 25.6257 184.388 29.2014 188.697 29.2014Z" fill="#333333"/>
<path d="M207.228 40.7995V9.26011H212.775V13.2942C214.563 10.7729 217.084 8.75584 220.98 8.75584C226.711 8.75584 232.258 13.2942 232.258 21.3166V21.4083C232.258 29.4306 226.757 33.969 220.98 33.969C216.992 33.969 214.471 31.9519 212.775 29.7057V40.7995H207.228ZM219.697 29.1556C223.502 29.1556 226.619 26.1758 226.619 21.4083V21.3166C226.619 16.6407 223.456 13.5693 219.697 13.5693C215.938 13.5693 212.637 16.6865 212.637 21.3166V21.4083C212.637 26.0842 215.938 29.1556 219.697 29.1556Z" fill="#333333"/>
<path d="M300.373 33.4647H294.872V30.485C293.221 32.4562 290.7 33.969 287.033 33.969C282.449 33.969 278.415 31.356 278.415 26.4967V26.4051C278.415 21.0415 282.586 18.4744 288.225 18.4744C291.159 18.4744 293.038 18.8869 294.918 19.4829V19.0245C294.918 15.678 292.809 13.8443 288.958 13.8443C286.254 13.8443 284.236 14.4403 282.036 15.3571L280.523 10.9104C283.182 9.71853 285.795 8.89337 289.738 8.89337C296.889 8.89337 300.373 12.6524 300.373 19.1162V33.4647ZM295.009 24.7089V23.3336C293.588 22.7835 291.617 22.3709 289.462 22.3709C285.978 22.3709 283.916 23.7921 283.916 26.13V26.2217C283.916 28.5138 285.978 29.7974 288.591 29.7974C292.259 29.7974 295.009 27.7345 295.009 24.7089Z" fill="#333333"/>
<path d="M320.723 33.969C316.735 33.969 314.213 31.9519 312.517 29.7057V33.4647H306.97V0H312.517V13.2942C314.305 10.7729 316.826 8.75584 320.723 8.75584C326.453 8.75584 332 13.2942 332 21.3166V21.4083C332 29.4306 326.499 33.969 320.723 33.969ZM319.439 29.1556C323.244 29.1556 326.361 26.1758 326.361 21.4083V21.3166C326.361 16.6407 323.198 13.5693 319.439 13.5693C315.68 13.5693 312.38 16.6865 312.38 21.3166V21.4083C312.38 26.0842 315.68 29.1556 319.439 29.1556Z" fill="#333333"/>
<path d="M251.493 33.4647L261.738 1.82474H267.528L258.317 28.4382H274.832V33.4647H251.493Z" fill="#333333"/>
</svg>
